<mxfile host="65bd71144e" scale="1" border="0" disableSvgWarning="true" linkTarget="_blank">
    <diagram name="Page-1" id="zo4WBBcyATChdUDADUly">
        <mxGraphModel dx="1649" dy="899" grid="1" gridSize="10" guides="1" tooltips="1" connect="1" arrows="1" fold="1" page="0" pageScale="1" pageWidth="850" pageHeight="1100" math="0" shadow="0">
            <root>
                <mxCell id="0"/>
                <mxCell id="1" parent="0"/>
                <mxCell id="4" value=".bookc file" style="verticalLabelPosition=bottom;html=1;verticalAlign=top;align=center;shape=mxgraph.azure.code_file;pointerEvents=1;strokeColor=default;fillColor=#FFFFFF;labelBackgroundColor=default;" parent="1" vertex="1">
                    <mxGeometry x="-120.8" y="301" width="47.5" height="50" as="geometry"/>
                </mxCell>
                <mxCell id="91" style="edgeStyle=none;html=1;exitX=1;exitY=0.5;exitDx=0;exitDy=0;exitPerimeter=0;entryX=0;entryY=0.5;entryDx=0;entryDy=0;strokeWidth=3;strokeColor=#777777;" parent="1" source="5" target="9" edge="1">
                    <mxGeometry relative="1" as="geometry"/>
                </mxCell>
                <mxCell id="5" value=".book file" style="verticalLabelPosition=bottom;html=1;verticalAlign=top;align=center;strokeColor=#000000;fillColor=#CEF0FF;shape=mxgraph.azure.cloud_services_configuration_file;pointerEvents=1;labelBackgroundColor=default;" parent="1" vertex="1">
                    <mxGeometry x="-119.3" y="180" width="46" height="54" as="geometry"/>
                </mxCell>
                <mxCell id="112" value="" style="edgeStyle=none;html=1;labelBackgroundColor=default;" edge="1" parent="1" source="6" target="10">
                    <mxGeometry relative="1" as="geometry"/>
                </mxCell>
                <mxCell id="6" value="Promptbook cache" style="pointerEvents=1;shadow=0;dashed=0;html=1;strokeColor=default;fillColor=default;labelPosition=center;verticalLabelPosition=bottom;verticalAlign=top;outlineConnect=0;align=center;shape=mxgraph.office.concepts.folder;labelBackgroundColor=default;" parent="1" vertex="1">
                    <mxGeometry x="-130.05" y="423.5" width="66" height="60" as="geometry"/>
                </mxCell>
                <mxCell id="10" value="SQLite" style="shape=cylinder3;whiteSpace=wrap;html=1;boundedLbl=1;backgroundOutline=1;size=15;labelBackgroundColor=default;" parent="1" vertex="1">
                    <mxGeometry x="-127.05" y="530" width="60" height="80" as="geometry"/>
                </mxCell>
                <mxCell id="15" value="Promptbook Engine" style="swimlane;whiteSpace=wrap;html=1;fillStyle=solid;gradientColor=none;swimlaneFillColor=default;" parent="1" vertex="1">
                    <mxGeometry x="181" y="137" width="964" height="587" as="geometry"/>
                </mxCell>
                <mxCell id="9" value="Parser" style="rounded=0;whiteSpace=wrap;html=1;" parent="15" vertex="1">
                    <mxGeometry x="40" y="43" width="120" height="60" as="geometry"/>
                </mxCell>
                <mxCell id="99" style="html=1;exitX=0.5;exitY=1;exitDx=0;exitDy=0;entryX=0.5;entryY=0;entryDx=0;entryDy=0;dashed=1;shape=link;flowAnimation=1;shadow=1;" parent="15" source="11" target="79" edge="1">
                    <mxGeometry relative="1" as="geometry"/>
                </mxCell>
                <mxCell id="101" style="html=1;exitX=0.5;exitY=1;exitDx=0;exitDy=0;entryX=0.5;entryY=0;entryDx=0;entryDy=0;dashed=1;shape=link;flowAnimation=1;shadow=1;" parent="15" source="11" target="82" edge="1">
                    <mxGeometry relative="1" as="geometry"/>
                </mxCell>
                <mxCell id="11" value="LLM Connector" style="rounded=0;whiteSpace=wrap;html=1;" parent="15" vertex="1">
                    <mxGeometry x="174" y="274" width="120" height="60" as="geometry"/>
                </mxCell>
                <mxCell id="38" value="Knowledge Engine" style="swimlane;whiteSpace=wrap;html=1;swimlaneFillColor=#E6E6E6;" parent="15" vertex="1">
                    <mxGeometry x="480" y="50" width="200" height="200" as="geometry"/>
                </mxCell>
                <mxCell id="35" value="Scrapers &amp;amp; Convertors" style="rounded=0;whiteSpace=wrap;html=1;labelBackgroundColor=none;" parent="38" vertex="1">
                    <mxGeometry x="40" y="70" width="120" height="60" as="geometry"/>
                </mxCell>
                <mxCell id="40" value="Personas Manager" style="rounded=0;whiteSpace=wrap;html=1;" parent="15" vertex="1">
                    <mxGeometry x="340" y="50" width="120" height="60" as="geometry"/>
                </mxCell>
                <mxCell id="42" value="Fetching Engine" style="rounded=0;whiteSpace=wrap;html=1;" parent="15" vertex="1">
                    <mxGeometry x="340" y="120" width="120" height="60" as="geometry"/>
                </mxCell>
                <mxCell id="43" value="Auth Engine" style="rounded=0;whiteSpace=wrap;html=1;" parent="15" vertex="1">
                    <mxGeometry x="340" y="190" width="120" height="60" as="geometry"/>
                </mxCell>
                <mxCell id="44" value="Cryptographic Engine" style="rounded=0;whiteSpace=wrap;html=1;" parent="15" vertex="1">
                    <mxGeometry x="340" y="260" width="120" height="60" as="geometry"/>
                </mxCell>
                <mxCell id="45" value="Linguistic engine" style="rounded=0;whiteSpace=wrap;html=1;" parent="15" vertex="1">
                    <mxGeometry x="340" y="330" width="120" height="60" as="geometry"/>
                </mxCell>
                <mxCell id="47" value="Cache Engine" style="rounded=0;whiteSpace=wrap;html=1;" parent="15" vertex="1">
                    <mxGeometry x="40" y="183" width="120" height="60" as="geometry"/>
                </mxCell>
                <mxCell id="48" value="&amp;nbsp;Garbage collector" style="rounded=0;whiteSpace=wrap;html=1;" parent="15" vertex="1">
                    <mxGeometry x="174" y="183" width="120" height="60" as="geometry"/>
                </mxCell>
                <mxCell id="49" value="Templating engine" style="rounded=0;whiteSpace=wrap;html=1;" parent="15" vertex="1">
                    <mxGeometry x="174" y="43" width="120" height="60" as="geometry"/>
                </mxCell>
                <mxCell id="51" value="User interactions" style="rounded=0;whiteSpace=wrap;html=1;" parent="15" vertex="1">
                    <mxGeometry x="690" y="50" width="120" height="60" as="geometry"/>
                </mxCell>
                <mxCell id="53" value="Sandbox" style="swimlane;whiteSpace=wrap;html=1;swimlaneFillColor=#E6E6E6;" parent="15" vertex="1">
                    <mxGeometry x="711" y="279" width="200" height="200" as="geometry"/>
                </mxCell>
                <mxCell id="52" value="JavaScript / TypeScript" style="rounded=0;whiteSpace=wrap;html=1;" parent="53" vertex="1">
                    <mxGeometry x="35" y="36" width="120" height="60" as="geometry"/>
                </mxCell>
                <mxCell id="55" value="Python" style="rounded=0;whiteSpace=wrap;html=1;" parent="53" vertex="1">
                    <mxGeometry x="35" y="111" width="120" height="60" as="geometry"/>
                </mxCell>
                <mxCell id="79" value="LLM Lite" style="shape=parallelogram;perimeter=parallelogramPerimeter;whiteSpace=wrap;html=1;fixedSize=1;" parent="15" vertex="1">
                    <mxGeometry x="15" y="390" width="120" height="60" as="geometry"/>
                </mxCell>
                <mxCell id="80" value="Mock LLM" style="shape=parallelogram;perimeter=parallelogramPerimeter;whiteSpace=wrap;html=1;fixedSize=1;" parent="15" vertex="1">
                    <mxGeometry x="133" y="390" width="120" height="60" as="geometry"/>
                </mxCell>
                <mxCell id="82" value="Vercel LLM&lt;br&gt;Adapter" style="shape=parallelogram;perimeter=parallelogramPerimeter;whiteSpace=wrap;html=1;fixedSize=1;" parent="15" vertex="1">
                    <mxGeometry x="248" y="390" width="120" height="60" as="geometry"/>
                </mxCell>
                <mxCell id="84" value="Expectations &amp;amp; Processing" style="swimlane;whiteSpace=wrap;html=1;swimlaneFillColor=#E6E6E6;" parent="15" vertex="1">
                    <mxGeometry x="494" y="267" width="200" height="307" as="geometry"/>
                </mxCell>
                <mxCell id="46" value="Type engine" style="rounded=0;whiteSpace=wrap;html=1;" parent="84" vertex="1">
                    <mxGeometry x="12" y="35" width="120" height="60" as="geometry"/>
                </mxCell>
                <mxCell id="87" value="Postprocessing" style="rounded=0;whiteSpace=wrap;html=1;" parent="84" vertex="1">
                    <mxGeometry x="12" y="104" width="120" height="60" as="geometry"/>
                </mxCell>
                <mxCell id="88" value="Counters" style="rounded=0;whiteSpace=wrap;html=1;" parent="84" vertex="1">
                    <mxGeometry x="12" y="171" width="120" height="60" as="geometry"/>
                </mxCell>
                <mxCell id="89" value="Formats &amp;amp; Schemas" style="rounded=0;whiteSpace=wrap;html=1;" parent="84" vertex="1">
                    <mxGeometry x="12" y="239" width="120" height="60" as="geometry"/>
                </mxCell>
                <mxCell id="93" value="Executions" style="rounded=0;whiteSpace=wrap;html=1;" parent="15" vertex="1">
                    <mxGeometry x="40" y="274" width="120" height="60" as="geometry"/>
                </mxCell>
                <mxCell id="100" style="html=1;exitX=0.5;exitY=1;exitDx=0;exitDy=0;entryX=0.61;entryY=0.095;entryDx=0;entryDy=0;entryPerimeter=0;dashed=1;shape=link;flowAnimation=1;shadow=1;" parent="15" source="11" target="80" edge="1">
                    <mxGeometry relative="1" as="geometry"/>
                </mxCell>
                <mxCell id="18" value="Anthropic Claude" style="shape=parallelogram;perimeter=parallelogramPerimeter;whiteSpace=wrap;html=1;fixedSize=1;" parent="1" vertex="1">
                    <mxGeometry x="335.75" y="836" width="120" height="60" as="geometry"/>
                </mxCell>
                <mxCell id="20" value="LibreOffice" style="rhombus;whiteSpace=wrap;html=1;" parent="1" vertex="1">
                    <mxGeometry x="1378" y="187" width="121" height="121" as="geometry"/>
                </mxCell>
                <mxCell id="23" value="TypeScript /&lt;br&gt;Javascript&lt;br&gt;library" style="rounded=0;whiteSpace=wrap;html=1;" parent="1" vertex="1">
                    <mxGeometry x="358" y="-87" width="120" height="60" as="geometry"/>
                </mxCell>
                <mxCell id="24" value="Python&lt;br&gt;library" style="rounded=0;whiteSpace=wrap;html=1;" parent="1" vertex="1">
                    <mxGeometry x="498" y="-87" width="120" height="60" as="geometry"/>
                </mxCell>
                <mxCell id="25" value="Remote server" style="rounded=0;whiteSpace=wrap;html=1;" parent="1" vertex="1">
                    <mxGeometry x="638" y="-87" width="120" height="60" as="geometry"/>
                </mxCell>
                <mxCell id="26" value="Docker container" style="rounded=0;whiteSpace=wrap;html=1;" parent="1" vertex="1">
                    <mxGeometry x="778" y="-87" width="120" height="60" as="geometry"/>
                </mxCell>
                <UserObject label="Promptbook.studio" link="https://promptbook.studio/" id="27">
                    <mxCell style="rounded=0;whiteSpace=wrap;html=1;" parent="1" vertex="1">
                        <mxGeometry x="918" y="-87" width="120" height="60" as="geometry"/>
                    </mxCell>
                </UserObject>
                <mxCell id="36" style="html=1;entryX=0;entryY=0.5;entryDx=0;entryDy=0;strokeColor=#777777;rounded=1;shape=flexArrow;exitX=1;exitY=0.5;exitDx=0;exitDy=0;endArrow=block;startArrow=block;dashed=1;dashPattern=12 12;flowAnimation=1;" parent="1" source="38" target="20" edge="1">
                    <mxGeometry relative="1" as="geometry">
                        <mxPoint x="933" y="307" as="sourcePoint"/>
                    </mxGeometry>
                </mxCell>
                <mxCell id="50" value="User" style="shape=umlActor;verticalLabelPosition=bottom;verticalAlign=top;html=1;outlineConnect=0;labelBackgroundColor=default;textShadow=0;" parent="1" vertex="1">
                    <mxGeometry x="1423.5" y="-60" width="30" height="60" as="geometry"/>
                </mxCell>
                <mxCell id="56" style="edgeStyle=none;html=1;entryX=0.5;entryY=1;entryDx=0;entryDy=0;shadow=0;flowAnimation=0;jumpStyle=none;fillColor=#dae8fc;strokeColor=#777777;" parent="1" edge="1" target="57">
                    <mxGeometry relative="1" as="geometry">
                        <mxPoint x="282" y="103" as="targetPoint"/>
                        <mxPoint x="282" y="120" as="sourcePoint"/>
                    </mxGeometry>
                </mxCell>
                <mxCell id="57" value="CLI" style="rounded=0;whiteSpace=wrap;html=1;" parent="1" vertex="1">
                    <mxGeometry x="222" y="-87" width="120" height="60" as="geometry"/>
                </mxCell>
                <mxCell id="58" style="edgeStyle=none;html=1;exitX=0.5;exitY=0;exitDx=0;exitDy=0;entryX=0;entryY=1;entryDx=0;entryDy=0;entryPerimeter=0;flowAnimation=1;strokeColor=#777777;" parent="1" source="51" target="50" edge="1">
                    <mxGeometry relative="1" as="geometry"/>
                </mxCell>
                <mxCell id="62" value="Pandoc" style="rhombus;whiteSpace=wrap;html=1;" parent="1" vertex="1">
                    <mxGeometry x="1378" y="324" width="121" height="121" as="geometry"/>
                </mxCell>
                <mxCell id="63" value="Markitdown" style="rhombus;whiteSpace=wrap;html=1;" parent="1" vertex="1">
                    <mxGeometry x="1378" y="461" width="121" height="121" as="geometry"/>
                </mxCell>
                <mxCell id="64" value="LibreOffice" style="rhombus;whiteSpace=wrap;html=1;" parent="1" vertex="1">
                    <mxGeometry x="1461" y="257" width="121" height="121" as="geometry"/>
                </mxCell>
                <mxCell id="65" value="Google Chrome" style="rhombus;whiteSpace=wrap;html=1;" parent="1" vertex="1">
                    <mxGeometry x="1461" y="393" width="121" height="121" as="geometry"/>
                </mxCell>
                <mxCell id="66" value="Firefox" style="rhombus;whiteSpace=wrap;html=1;" parent="1" vertex="1">
                    <mxGeometry x="1546" y="324" width="121" height="121" as="geometry"/>
                </mxCell>
                <mxCell id="67" value="Safari" style="rhombus;whiteSpace=wrap;html=1;" parent="1" vertex="1">
                    <mxGeometry x="1538" y="190" width="121" height="121" as="geometry"/>
                </mxCell>
                <mxCell id="68" style="html=1;exitX=1;exitY=0.5;exitDx=0;exitDy=0;entryX=0;entryY=0.5;entryDx=0;entryDy=0;shape=flexArrow;endArrow=block;startArrow=block;dashed=1;dashPattern=12 12;flowAnimation=1;strokeColor=#777777;" parent="1" source="38" target="64" edge="1">
                    <mxGeometry relative="1" as="geometry"/>
                </mxCell>
                <mxCell id="69" style="html=1;exitX=1;exitY=0.5;exitDx=0;exitDy=0;entryX=0;entryY=0.5;entryDx=0;entryDy=0;shape=flexArrow;endArrow=block;startArrow=block;dashed=1;dashPattern=12 12;flowAnimation=1;strokeColor=#777777;" parent="1" source="38" target="67" edge="1">
                    <mxGeometry relative="1" as="geometry"/>
                </mxCell>
                <mxCell id="70" style="html=1;exitX=1;exitY=0.5;exitDx=0;exitDy=0;entryX=0;entryY=0.5;entryDx=0;entryDy=0;shape=flexArrow;endArrow=block;startArrow=block;dashed=1;dashPattern=12 12;flowAnimation=1;strokeColor=#777777;" parent="1" source="38" target="66" edge="1">
                    <mxGeometry relative="1" as="geometry"/>
                </mxCell>
                <mxCell id="71" style="html=1;exitX=1;exitY=0.5;exitDx=0;exitDy=0;entryX=0;entryY=0.5;entryDx=0;entryDy=0;shape=flexArrow;endArrow=block;startArrow=block;dashed=1;dashPattern=12 12;flowAnimation=1;strokeColor=#777777;" parent="1" source="38" target="62" edge="1">
                    <mxGeometry relative="1" as="geometry"/>
                </mxCell>
                <mxCell id="72" style="html=1;exitX=1;exitY=0.5;exitDx=0;exitDy=0;entryX=0;entryY=0.5;entryDx=0;entryDy=0;shape=flexArrow;endArrow=block;startArrow=block;dashed=1;dashPattern=12 12;flowAnimation=1;strokeColor=#777777;" parent="1" source="38" target="65" edge="1">
                    <mxGeometry relative="1" as="geometry"/>
                </mxCell>
                <mxCell id="73" style="html=1;exitX=1;exitY=0.5;exitDx=0;exitDy=0;entryX=0.009;entryY=0.52;entryDx=0;entryDy=0;entryPerimeter=0;shape=flexArrow;endArrow=block;startArrow=block;dashed=1;dashPattern=12 12;flowAnimation=1;strokeColor=#777777;" parent="1" source="38" target="63" edge="1">
                    <mxGeometry relative="1" as="geometry"/>
                </mxCell>
                <mxCell id="74" value="Azure OpenAI" style="shape=parallelogram;perimeter=parallelogramPerimeter;whiteSpace=wrap;html=1;fixedSize=1;" parent="1" vertex="1">
                    <mxGeometry x="460.75" y="836" width="120" height="60" as="geometry"/>
                </mxCell>
                <mxCell id="76" value="OpenAI" style="shape=parallelogram;perimeter=parallelogramPerimeter;whiteSpace=wrap;html=1;fixedSize=1;" parent="1" vertex="1">
                    <mxGeometry x="587.75" y="831" width="120" height="60" as="geometry"/>
                </mxCell>
                <mxCell id="77" value="DeepSeek" style="shape=parallelogram;perimeter=parallelogramPerimeter;whiteSpace=wrap;html=1;fixedSize=1;" parent="1" vertex="1">
                    <mxGeometry x="320.75" y="921" width="120" height="60" as="geometry"/>
                </mxCell>
                <mxCell id="78" value="Google" style="shape=parallelogram;perimeter=parallelogramPerimeter;whiteSpace=wrap;html=1;fixedSize=1;" parent="1" vertex="1">
                    <mxGeometry x="444.75" y="921" width="120" height="60" as="geometry"/>
                </mxCell>
                <mxCell id="92" style="edgeStyle=orthogonalEdgeStyle;html=1;exitX=0.5;exitY=1;exitDx=0;exitDy=0;entryX=1;entryY=0.5;entryDx=0;entryDy=0;entryPerimeter=0;curved=1;strokeWidth=2;strokeColor=#777777;" parent="1" source="9" target="4" edge="1">
                    <mxGeometry relative="1" as="geometry"/>
                </mxCell>
                <mxCell id="94" style="edgeStyle=none;html=1;exitX=0;exitY=0.5;exitDx=0;exitDy=0;strokeWidth=2;strokeColor=#777777;" parent="1" source="93" target="6" edge="1">
                    <mxGeometry relative="1" as="geometry"/>
                </mxCell>
                <mxCell id="95" style="html=1;exitX=0.5;exitY=1;exitDx=0;exitDy=0;entryX=0.5;entryY=0;entryDx=0;entryDy=0;dashed=1;shape=link;" parent="1" source="11" target="18" edge="1">
                    <mxGeometry relative="1" as="geometry"/>
                </mxCell>
                <mxCell id="97" style="html=1;exitX=0.5;exitY=1;exitDx=0;exitDy=0;entryX=0.599;entryY=0.097;entryDx=0;entryDy=0;entryPerimeter=0;dashed=1;shape=link;flowAnimation=1;shadow=1;strokeColor=#777777;" parent="1" source="11" target="74" edge="1">
                    <mxGeometry relative="1" as="geometry"/>
                </mxCell>
                <mxCell id="98" style="html=1;exitX=0.5;exitY=1;exitDx=0;exitDy=0;entryX=0.601;entryY=0.059;entryDx=0;entryDy=0;entryPerimeter=0;dashed=1;shape=link;flowAnimation=1;shadow=1;strokeColor=#777777;" parent="1" source="11" target="76" edge="1">
                    <mxGeometry relative="1" as="geometry"/>
                </mxCell>
                <mxCell id="102" style="html=1;exitX=0.5;exitY=1;exitDx=0;exitDy=0;entryX=0.614;entryY=0.105;entryDx=0;entryDy=0;entryPerimeter=0;dashed=1;shape=link;flowAnimation=1;shadow=1;strokeColor=#777777;" parent="1" source="11" target="77" edge="1">
                    <mxGeometry relative="1" as="geometry"/>
                </mxCell>
                <mxCell id="103" style="html=1;exitX=0.5;exitY=1;exitDx=0;exitDy=0;entryX=0.5;entryY=0;entryDx=0;entryDy=0;dashed=1;shape=link;flowAnimation=1;shadow=1;strokeColor=#777777;" parent="1" source="11" target="78" edge="1">
                    <mxGeometry relative="1" as="geometry"/>
                </mxCell>
                <mxCell id="105" style="edgeStyle=none;html=1;entryX=0.5;entryY=1;entryDx=0;entryDy=0;jumpStyle=none;shadow=0;fillColor=#dae8fc;strokeColor=#777777;" edge="1" parent="1">
                    <mxGeometry relative="1" as="geometry">
                        <mxPoint x="417.29" y="-27" as="targetPoint"/>
                        <mxPoint x="417.29" y="120" as="sourcePoint"/>
                    </mxGeometry>
                </mxCell>
                <mxCell id="106" style="edgeStyle=none;html=1;entryX=0.5;entryY=1;entryDx=0;entryDy=0;jumpStyle=none;shadow=0;fillColor=#dae8fc;strokeColor=#777777;" edge="1" parent="1">
                    <mxGeometry relative="1" as="geometry">
                        <mxPoint x="557.29" y="-27" as="targetPoint"/>
                        <mxPoint x="557.29" y="120" as="sourcePoint"/>
                    </mxGeometry>
                </mxCell>
                <mxCell id="107" style="edgeStyle=none;html=1;entryX=0.5;entryY=1;entryDx=0;entryDy=0;jumpStyle=none;shadow=0;fillColor=#dae8fc;strokeColor=#777777;" edge="1" parent="1">
                    <mxGeometry relative="1" as="geometry">
                        <mxPoint x="697.29" y="-27" as="targetPoint"/>
                        <mxPoint x="697.29" y="120" as="sourcePoint"/>
                    </mxGeometry>
                </mxCell>
                <mxCell id="108" style="edgeStyle=none;html=1;entryX=0.5;entryY=1;entryDx=0;entryDy=0;jumpStyle=none;shadow=0;fillColor=#dae8fc;strokeColor=#777777;" edge="1" parent="1">
                    <mxGeometry relative="1" as="geometry">
                        <mxPoint x="837.29" y="-27" as="targetPoint"/>
                        <mxPoint x="837.29" y="120" as="sourcePoint"/>
                    </mxGeometry>
                </mxCell>
                <mxCell id="109" style="edgeStyle=none;html=1;entryX=0.5;entryY=1;entryDx=0;entryDy=0;jumpStyle=none;shadow=0;fillColor=#dae8fc;strokeColor=#777777;" edge="1" parent="1">
                    <mxGeometry relative="1" as="geometry">
                        <mxPoint x="977.29" y="-27" as="targetPoint"/>
                        <mxPoint x="977.29" y="120" as="sourcePoint"/>
                    </mxGeometry>
                </mxCell>
            </root>
        </mxGraphModel>
    </diagram>
</mxfile>